<svg
    xmlns="http://www.w3.org/2000/svg"
    viewBox="0 0 1024 1024"
    id="vector">
    <g id="group_1">
        <g id="group">
            <g
                id="rotationgroup"
                transform="translate(4480 4480) scale(0.815 0.815) translate(-4480 -4480)">
                <path
                    id="path"
                    d="M 4480 4480 M 751.36 4480 C 748.865 3691.096 996.806 2921.392 1459.303 2282.273 C 1921.8 1643.155 2575.412 1167.013 3325.553 922.753 C 4075.695 678.492 4884.348 678.492 5634.489 922.753 C 6384.631 1167.013 7038.243 1643.155 7500.74 2282.273 C 7963.236 2921.392 8211.177 3691.096 8208.683 4480 C 8211.177 5268.904 7963.236 6038.608 7500.74 6677.727 C 7038.243 7316.845 6384.631 7792.987 5634.489 8037.247 C 4884.348 8281.508 4075.695 8281.508 3325.553 8037.247 C 2575.412 7792.987 1921.8 7316.845 1459.303 6677.727 C 996.806 6038.608 748.865 5268.904 751.36 4480"
                    fill="#ffffff"
                    stroke="#ff0000"
                    stroke-width="649.3439999999999"/>
                <path
                    id="path_1"
                    d="M 4155.349 1794.133 L 5758.379 1794.133 L 5758.379 2443.477 L 4155.349 2443.477 Z"
                    fill="#000000"
                    stroke="#00000000"
                    stroke-width="666.8305258666667"/>
                <path
                    id="path_2"
                    d="M 6968.363 5541.803 L 6166.827 6930.091 L 5604.48 6605.44 L 6406.016 5217.152 Z"
                    fill="#000000"
                    stroke="#00000000"
                    stroke-width="666.8305258666667"/>
                <path
                    id="path_3"
                    d="M 4155.349 1794.133 L 4804.693 1794.133 L 4804.693 4480 L 4155.349 4480 Z"
                    fill="#000000"
                    stroke="#00000000"/>
                <path
                    id="path_4"
                    d="M 6968.363 5541.803 L 6643.712 6104.149 L 4317.653 4761.216 L 4642.304 4198.869 Z"
                    fill="#000000"
                    stroke="#00000000"/>
                <path
                    id="path_5"
                    d="M 2316.288 6104.107 L 1991.637 5541.76 L 4317.696 4198.827 L 4642.347 4761.173 Z"
                    fill="#000000"
                    stroke="#00000000"/>
                <path
                    id="path_6"
                    d="M 2316.288 6104.107 L 1514.752 4715.819 L 2077.099 4391.168 L 2878.635 5779.456 Z"
                    fill="#000000"
                    stroke="#00000000"
                    stroke-width="666.8305258666667"/>
            </g>
        </g>
    </g>
    <g
        id="rotation"
        transform="translate(-27 -31) scale(4 4) translate(27 31)">
        <path
            id="path_7"
            d="M 105 105 M 17.61 105 C 17.552 86.51 23.363 68.47 34.202 53.491 C 45.042 38.511 60.361 27.352 77.943 21.627 C 95.524 15.902 114.477 15.902 132.058 21.627 C 149.64 27.352 164.959 38.511 175.799 53.491 C 186.638 68.47 192.449 86.51 192.391 105 C 192.449 123.49 186.638 141.53 175.799 156.509 C 164.959 171.489 149.64 182.648 132.058 188.373 C 114.477 194.098 95.524 194.098 77.943 188.373 C 60.361 182.648 45.042 171.489 34.202 156.509 C 23.363 141.53 17.552 123.49 17.61 105"
            fill="#ffffff"
            stroke="#ff0000"
            stroke-width="15.219"/>
    </g>
    <g
        id="rotationgroup_1"
        transform="translate(490 512) scale(0.605 0.605) translate(-490 -512)">
        <path
            id="path_8"
            d="M 522.67 96 L 531.2 96.04 C 561.79 96.277 592.349 98.056 622.76 101.37 L 637.31 103.08 L 652.71 105.21 L 667.84 107.62 L 675.41 108.94 L 690.3 111.78 C 815.51 137.1 903.23 191.27 906.56 262.46 L 906.67 266.66 L 906.67 714.66 C 906.67 787.92 817.97 843.73 690.31 869.54 L 675.42 872.38 L 667.85 873.7 L 652.72 876.09 L 637.32 878.22 C 601.05 882.87 562.55 885.32 522.67 885.32 C 482.8 885.32 444.29 882.87 408.02 878.22 L 392.62 876.09 L 377.49 873.7 C 240.4 850.51 142.23 794.21 138.77 718.8 L 138.67 714.67 L 138.67 266.67 L 138.78 262.47 C 142.11 191.28 229.83 137.12 355.04 111.79 L 369.93 108.95 L 377.5 107.63 L 392.63 105.24 L 408.03 103.11 C 440.425 99.008 473.021 96.688 505.67 96.16 L 522.67 96 Z M 667.84 639.04 L 652.71 641.43 L 637.31 643.56 C 601.04 648.21 562.54 650.66 522.66 650.66 C 482.79 650.66 444.28 648.21 408.01 643.56 L 392.61 641.43 L 377.48 639.04 C 305.99 626.94 245.06 605.85 202.65 577.73 L 202.67 714.67 C 202.67 735.62 226.84 757.44 267.74 775.85 L 277.49 780.03 C 292.53 786.22 309.49 791.96 328.09 797.05 L 340.74 800.36 C 353.6 803.56 367.19 806.5 381.34 809.06 L 395.72 811.51 L 410.46 813.71 C 420.42 815.1 430.62 816.31 441.03 817.34 L 456.8 818.75 L 472.86 819.86 L 489.22 820.67 C 511.511 821.552 533.829 821.552 556.12 820.67 L 572.48 819.86 L 588.54 818.75 L 604.33 817.34 C 614.72 816.32 624.92 815.1 634.88 813.71 L 649.62 811.51 L 664 809.06 C 678.17 806.5 691.73 803.58 704.6 800.36 L 717.25 797.05 C 735.85 791.93 752.81 786.21 767.85 780.03 L 777.6 775.85 C 816.92 758.14 840.79 737.3 842.56 717.08 L 842.67 714.67 L 842.67 577.71 C 800.28 605.85 739.35 626.95 667.84 639.04 Z M 842.67 364.37 C 802.37 391.1 745.39 411.47 678.47 423.83 L 667.8 425.71 L 652.7 428.1 L 637.3 430.23 C 601.03 434.88 562.53 437.33 522.65 437.33 C 488.47 437.33 455.3 435.54 423.66 432.08 L 408 430.22 L 392.6 428.09 L 377.47 425.7 C 305.98 413.6 245.05 392.51 202.64 364.39 L 202.65 480 C 202.65 500.95 226.82 522.77 267.72 541.18 L 277.47 545.36 C 292.51 551.55 309.47 557.29 328.07 562.38 L 340.72 565.69 C 353.58 568.89 367.17 571.83 381.32 574.39 L 395.7 576.84 L 410.44 579.04 C 420.4 580.43 430.6 581.64 441.01 582.67 L 456.78 584.08 L 472.84 585.19 L 489.2 586 C 511.491 586.882 533.809 586.882 556.1 586 L 572.46 585.19 L 588.52 584.08 L 604.31 582.67 C 614.7 581.65 624.9 580.43 634.86 579.04 L 649.6 576.84 L 663.98 574.39 C 678.15 571.83 691.71 568.91 704.58 565.69 L 717.23 562.38 C 735.83 557.26 752.79 551.54 767.83 545.36 L 777.58 541.18 C 816.9 523.47 840.77 502.63 842.54 482.41 L 842.65 480 L 842.65 364.37 Z M 522.67 160 L 514.22 160.04 L 501.63 160.25 L 489.21 160.66 L 472.85 161.47 L 456.79 162.58 L 441 163.99 C 434.07 164.67 427.24 165.44 420.5 166.29 L 410.47 167.61 L 395.71 169.81 L 381.33 172.26 C 370.71 174.18 360.42 176.31 350.5 178.6 L 340.73 180.95 L 328.08 184.28 C 312.59 188.55 298.21 193.24 285.16 198.25 L 277.48 201.3 L 267.73 205.48 C 226.83 223.89 202.66 245.71 202.66 266.66 C 202.66 286.71 224.78 307.53 262.5 325.43 L 267.73 327.84 L 277.48 332.02 C 290 337.18 303.87 342.03 318.93 346.44 L 328.1 349.04 L 340.73 352.35 C 350.37 354.76 360.42 357 370.81 359.07 L 381.33 361.05 L 395.71 363.5 L 410.45 365.7 C 417.08 366.64 423.83 367.47 430.67 368.26 L 441.02 369.33 L 456.79 370.74 L 472.85 371.85 L 489.21 372.66 C 507.824 373.395 526.458 373.515 545.08 373.02 L 556.11 372.66 L 572.47 371.85 L 588.53 370.74 L 604.32 369.33 C 611.25 368.65 618.08 367.88 624.82 367.03 L 634.85 365.71 L 649.61 363.51 L 663.99 361.06 C 674.61 359.14 684.9 357.01 694.82 354.72 L 704.59 352.37 L 717.24 349.04 C 732.73 344.77 747.11 340.08 760.16 335.07 L 767.84 332.02 L 777.59 327.84 C 818.49 309.43 842.66 287.61 842.66 266.66 C 842.66 246.61 820.54 225.79 782.82 207.89 L 777.59 205.48 L 767.84 201.3 C 754.281 195.782 740.446 190.969 726.39 186.88 L 717.22 184.28 L 704.59 180.97 C 694.62 178.483 684.59 176.242 674.51 174.25 L 663.99 172.27 L 649.61 169.82 L 634.87 167.62 C 628.142 166.677 621.401 165.824 614.65 165.06 L 604.3 163.99 L 588.53 162.58 L 572.47 161.47 L 556.11 160.66 C 548.79 160.36 541.39 160.17 533.92 160.06 L 522.67 160 Z"
            fill="#000000"/>
    </g>
    <g
        id="rotation_1"
        transform="translate(-27 -31) scale(4 4) translate(27 31)">
        <path
            id="path_9"
            d="M 105 105 M 17.61 105 C 17.552 86.51 23.363 68.47 34.202 53.491 C 45.042 38.511 60.361 27.352 77.943 21.627 C 95.524 15.902 114.477 15.902 132.058 21.627 C 149.64 27.352 164.959 38.511 175.799 53.491 C 186.638 68.47 192.449 86.51 192.391 105 C 192.449 123.49 186.638 141.53 175.799 156.509 C 164.959 171.489 149.64 182.648 132.058 188.373 C 114.477 194.098 95.524 194.098 77.943 188.373 C 60.361 182.648 45.042 171.489 34.202 156.509 C 23.363 141.53 17.552 123.49 17.61 105"
            fill="#000000"
            stroke="#ff0000"
            stroke-width="15.219"/>
    </g>
    <g
        id="rotationgroup_2"
        transform="translate(490 512) scale(0.605 0.605) translate(-490 -512)">
        <path
            id="path_10"
            d="M 522.67 96 L 531.2 96.04 C 561.79 96.277 592.349 98.056 622.76 101.37 L 637.31 103.08 L 652.71 105.21 L 667.84 107.62 L 675.41 108.94 L 690.3 111.78 C 815.51 137.1 903.23 191.27 906.56 262.46 L 906.67 266.66 L 906.67 714.66 C 906.67 787.92 817.97 843.73 690.31 869.54 L 675.42 872.38 L 667.85 873.7 L 652.72 876.09 L 637.32 878.22 C 601.05 882.87 562.55 885.32 522.67 885.32 C 482.8 885.32 444.29 882.87 408.02 878.22 L 392.62 876.09 L 377.49 873.7 C 240.4 850.51 142.23 794.21 138.77 718.8 L 138.67 714.67 L 138.67 266.67 L 138.78 262.47 C 142.11 191.28 229.83 137.12 355.04 111.79 L 369.93 108.95 L 377.5 107.63 L 392.63 105.24 L 408.03 103.11 C 440.425 99.008 473.021 96.688 505.67 96.16 L 522.67 96 Z M 667.84 639.04 L 652.71 641.43 L 637.31 643.56 C 601.04 648.21 562.54 650.66 522.66 650.66 C 482.79 650.66 444.28 648.21 408.01 643.56 L 392.61 641.43 L 377.48 639.04 C 305.99 626.94 245.06 605.85 202.65 577.73 L 202.67 714.67 C 202.67 735.62 226.84 757.44 267.74 775.85 L 277.49 780.03 C 292.53 786.22 309.49 791.96 328.09 797.05 L 340.74 800.36 C 353.6 803.56 367.19 806.5 381.34 809.06 L 395.72 811.51 L 410.46 813.71 C 420.42 815.1 430.62 816.31 441.03 817.34 L 456.8 818.75 L 472.86 819.86 L 489.22 820.67 C 511.511 821.552 533.829 821.552 556.12 820.67 L 572.48 819.86 L 588.54 818.75 L 604.33 817.34 C 614.72 816.32 624.92 815.1 634.88 813.71 L 649.62 811.51 L 664 809.06 C 678.17 806.5 691.73 803.58 704.6 800.36 L 717.25 797.05 C 735.85 791.93 752.81 786.21 767.85 780.03 L 777.6 775.85 C 816.92 758.14 840.79 737.3 842.56 717.08 L 842.67 714.67 L 842.67 577.71 C 800.28 605.85 739.35 626.95 667.84 639.04 Z M 842.67 364.37 C 802.37 391.1 745.39 411.47 678.47 423.83 L 667.8 425.71 L 652.7 428.1 L 637.3 430.23 C 601.03 434.88 562.53 437.33 522.65 437.33 C 488.47 437.33 455.3 435.54 423.66 432.08 L 408 430.22 L 392.6 428.09 L 377.47 425.7 C 305.98 413.6 245.05 392.51 202.64 364.39 L 202.65 480 C 202.65 500.95 226.82 522.77 267.72 541.18 L 277.47 545.36 C 292.51 551.55 309.47 557.29 328.07 562.38 L 340.72 565.69 C 353.58 568.89 367.17 571.83 381.32 574.39 L 395.7 576.84 L 410.44 579.04 C 420.4 580.43 430.6 581.64 441.01 582.67 L 456.78 584.08 L 472.84 585.19 L 489.2 586 C 511.491 586.882 533.809 586.882 556.1 586 L 572.46 585.19 L 588.52 584.08 L 604.31 582.67 C 614.7 581.65 624.9 580.43 634.86 579.04 L 649.6 576.84 L 663.98 574.39 C 678.15 571.83 691.71 568.91 704.58 565.69 L 717.23 562.38 C 735.83 557.26 752.79 551.54 767.83 545.36 L 777.58 541.18 C 816.9 523.47 840.77 502.63 842.54 482.41 L 842.65 480 L 842.65 364.37 Z M 522.67 160 L 514.22 160.04 L 501.63 160.25 L 489.21 160.66 L 472.85 161.47 L 456.79 162.58 L 441 163.99 C 434.07 164.67 427.24 165.44 420.5 166.29 L 410.47 167.61 L 395.71 169.81 L 381.33 172.26 C 370.71 174.18 360.42 176.31 350.5 178.6 L 340.73 180.95 L 328.08 184.28 C 312.59 188.55 298.21 193.24 285.16 198.25 L 277.48 201.3 L 267.73 205.48 C 226.83 223.89 202.66 245.71 202.66 266.66 C 202.66 286.71 224.78 307.53 262.5 325.43 L 267.73 327.84 L 277.48 332.02 C 290 337.18 303.87 342.03 318.93 346.44 L 328.1 349.04 L 340.73 352.35 C 350.37 354.76 360.42 357 370.81 359.07 L 381.33 361.05 L 395.71 363.5 L 410.45 365.7 C 417.08 366.64 423.83 367.47 430.67 368.26 L 441.02 369.33 L 456.79 370.74 L 472.85 371.85 L 489.21 372.66 C 507.824 373.395 526.458 373.515 545.08 373.02 L 556.11 372.66 L 572.47 371.85 L 588.53 370.74 L 604.32 369.33 C 611.25 368.65 618.08 367.88 624.82 367.03 L 634.85 365.71 L 649.61 363.51 L 663.99 361.06 C 674.61 359.14 684.9 357.01 694.82 354.72 L 704.59 352.37 L 717.24 349.04 C 732.73 344.77 747.11 340.08 760.16 335.07 L 767.84 332.02 L 777.59 327.84 C 818.49 309.43 842.66 287.61 842.66 266.66 C 842.66 246.61 820.54 225.79 782.82 207.89 L 777.59 205.48 L 767.84 201.3 C 754.281 195.782 740.446 190.969 726.39 186.88 L 717.22 184.28 L 704.59 180.97 C 694.62 178.483 684.59 176.242 674.51 174.25 L 663.99 172.27 L 649.61 169.82 L 634.87 167.62 C 628.142 166.677 621.401 165.824 614.65 165.06 L 604.3 163.99 L 588.53 162.58 L 572.47 161.47 L 556.11 160.66 C 548.79 160.36 541.39 160.17 533.92 160.06 L 522.67 160 Z"
            fill="#ffffff"/>
    </g>
</svg>
