<svg
    xmlns="http://www.w3.org/2000/svg"
    viewBox="0 0 1024 1024"
    id="vector">
    <g id="group_1">
        <g id="group">
            <g
                id="rotationgroup"
                transform="translate(4480 4480) scale(0.815 0.815) translate(-4480 -4480)">
                <path
                    id="path"
                    d="M 4480 4480 M 751.36 4480 C 748.865 3691.096 996.806 2921.392 1459.303 2282.273 C 1921.8 1643.155 2575.412 1167.013 3325.553 922.753 C 4075.695 678.492 4884.348 678.492 5634.489 922.753 C 6384.631 1167.013 7038.243 1643.155 7500.74 2282.273 C 7963.236 2921.392 8211.177 3691.096 8208.683 4480 C 8211.177 5268.904 7963.236 6038.608 7500.74 6677.727 C 7038.243 7316.845 6384.631 7792.987 5634.489 8037.247 C 4884.348 8281.508 4075.695 8281.508 3325.553 8037.247 C 2575.412 7792.987 1921.8 7316.845 1459.303 6677.727 C 996.806 6038.608 748.865 5268.904 751.36 4480"
                    fill="#ffffff"
                    stroke="#ff0000"
                    stroke-width="649.3439999999999"/>
                <path
                    id="path_1"
                    d="M 4155.349 1794.133 L 5758.379 1794.133 L 5758.379 2443.477 L 4155.349 2443.477 Z"
                    fill="#000000"
                    stroke="#00000000"
                    stroke-width="666.8305258666667"/>
                <path
                    id="path_2"
                    d="M 6968.363 5541.803 L 6166.827 6930.091 L 5604.48 6605.44 L 6406.016 5217.152 Z"
                    fill="#000000"
                    stroke="#00000000"
                    stroke-width="666.8305258666667"/>
                <path
                    id="path_3"
                    d="M 4155.349 1794.133 L 4804.693 1794.133 L 4804.693 4480 L 4155.349 4480 Z"
                    fill="#000000"
                    stroke="#00000000"/>
                <path
                    id="path_4"
                    d="M 6968.363 5541.803 L 6643.712 6104.149 L 4317.653 4761.216 L 4642.304 4198.869 Z"
                    fill="#000000"
                    stroke="#00000000"/>
                <path
                    id="path_5"
                    d="M 2316.288 6104.107 L 1991.637 5541.76 L 4317.696 4198.827 L 4642.347 4761.173 Z"
                    fill="#000000"
                    stroke="#00000000"/>
                <path
                    id="path_6"
                    d="M 2316.288 6104.107 L 1514.752 4715.819 L 2077.099 4391.168 L 2878.635 5779.456 Z"
                    fill="#000000"
                    stroke="#00000000"
                    stroke-width="666.8305258666667"/>
            </g>
        </g>
    </g>
    <g
        id="rotation"
        transform="translate(-27 -31) scale(4 4) translate(27 31)">
        <path
            id="path_7"
            d="M 105 105 M 17.61 105 C 17.552 86.51 23.363 68.47 34.202 53.491 C 45.042 38.511 60.361 27.352 77.943 21.627 C 95.524 15.902 114.477 15.902 132.058 21.627 C 149.64 27.352 164.959 38.511 175.799 53.491 C 186.638 68.47 192.449 86.51 192.391 105 C 192.449 123.49 186.638 141.53 175.799 156.509 C 164.959 171.489 149.64 182.648 132.058 188.373 C 114.477 194.098 95.524 194.098 77.943 188.373 C 60.361 182.648 45.042 171.489 34.202 156.509 C 23.363 141.53 17.552 123.49 17.61 105"
            fill="#ffffff"
            stroke="#ff0000"
            stroke-width="15.219"/>
    </g>
    <g
        id="rotationgroup_1"
        transform="translate(490 512) scale(0.605 0.605) translate(-490 -512)">
        <path
            id="path_8"
            d="M 522.67 96 L 531.2 96.04 C 561.79 96.277 592.349 98.056 622.76 101.37 L 637.31 103.08 L 652.71 105.21 L 667.84 107.62 L 675.41 108.94 L 690.3 111.78 C 815.51 137.1 903.23 191.27 906.56 262.46 L 906.67 266.66 L 906.67 714.66 C 906.67 787.92 817.97 843.73 690.31 869.54 L 675.42 872.38 L 667.85 873.7 L 652.72 876.09 L 637.32 878.22 C 601.05 882.87 562.55 885.32 522.67 885.32 C 482.8 885.32 444.29 882.87 408.02 878.22 L 392.62 876.09 L 377.49 873.7 C 240.4 850.51 142.23 794.21 138.77 718.8 L 138.67 714.67 L 138.67 266.67 L 138.78 262.47 C 142.11 191.28 229.83 137.12 355.04 111.79 L 369.93 108.95 L 377.5 107.63 L 392.63 105.24 L 408.03 103.11 C 440.425 99.008 473.021 96.688 505.67 96.16 L 522.67 96 Z M 667.84 639.04 L 652.71 641.43 L 637.31 643.56 C 601.04 648.21 562.54 650.66 522.66 650.66 C 482.79 650.66 444.28 648.21 408.01 643.56 L 392.61 641.43 L 377.48 639.04 C 305.99 626.94 245.06 605.85 202.65 577.73 L 202.67 714.67 C 202.67 735.62 226.84 757.44 267.74 775.85 L 277.49 780.03 C 292.53 786.22 309.49 791.96 328.09 797.05 L 340.74 800.36 C 353.6 803.56 367.19 806.5 381.34 809.06 L 395.72 811.51 L 410.46 813.71 C 420.42 815.1 430.62 816.31 441.03 817.34 L 456.8 818.75 L 472.86 819.86 L 489.22 820.67 C 511.511 821.552 533.829 821.552 556.12 820.67 L 572.48 819.86 L 588.54 818.75 L 604.33 817.34 C 614.72 816.32 624.92 815.1 634.88 813.71 L 649.62 811.51 L 664 809.06 C 678.17 806.5 691.73 803.58 704.6 800.36 L 717.25 797.05 C 735.85 791.93 752.81 786.21 767.85 780.03 L 777.6 775.85 C 816.92 758.14 840.79 737.3 842.56 717.08 L 842.67 714.67 L 842.67 577.71 C 800.28 605.85 739.35 626.95 667.84 639.04 Z M 842.67 364.37 C 802.37 391.1 745.39 411.47 678.47 423.83 L 667.8 425.71 L 652.7 428.1 L 637.3 430.23 C 601.03 434.88 562.53 437.33 522.65 437.33 C 488.47 437.33 455.3 435.54 423.66 432.08 L 408 430.22 L 392.6 428.09 L 377.47 425.7 C 305.98 413.6 245.05 392.51 202.64 364.39 L 202.65 480 C 202.65 500.95 226.82 522.77 267.72 541.18 L 277.47 545.36 C 292.51 551.55 309.47 557.29 328.07 562.38 L 340.72 565.69 C 353.58 568.89 367.17 571.83 381.32 574.39 L 395.7 576.84 L 410.44 579.04 C 420.4 580.43 430.6 581.64 441.01 582.67 L 456.78 584.08 L 472.84 585.19 L 489.2 586 C 511.491 586.882 533.809 586.882 556.1 586 L 572.46 585.19 L 588.52 584.08 L 604.31 582.67 C 614.7 581.65 624.9 580.43 634.86 579.04 L 649.6 576.84 L 663.98 574.39 C 678.15 571.83 691.71 568.91 704.58 565.69 L 717.23 562.38 C 735.83 557.26 752.79 551.54 767.83 545.36 L 777.58 541.18 C 816.9 523.47 840.77 502.63 842.54 482.41 L 842.65 480 L 842.65 364.37 Z M 522.67 160 L 514.22 160.04 L 501.63 160.25 L 489.21 160.66 L 472.85 161.47 L 456.79 162.58 L 441 163.99 C 434.07 164.67 427.24 165.44 420.5 166.29 L 410.47 167.61 L 395.71 169.81 L 381.33 172.26 C 370.71 174.18 360.42 176.31 350.5 178.6 L 340.73 180.95 L 328.08 184.28 C 312.59 188.55 298.21 193.24 285.16 198.25 L 277.48 201.3 L 267.73 205.48 C 226.83 223.89 202.66 245.71 202.66 266.66 C 202.66 286.71 224.78 307.53 262.5 325.43 L 267.73 327.84 L 277.48 332.02 C 290 337.18 303.87 342.03 318.93 346.44 L 328.1 349.04 L 340.73 352.35 C 350.37 354.76 360.42 357 370.81 359.07 L 381.33 361.05 L 395.71 363.5 L 410.45 365.7 C 417.08 366.64 423.83 367.47 430.67 368.26 L 441.02 369.33 L 456.79 370.74 L 472.85 371.85 L 489.21 372.66 C 507.824 373.395 526.458 373.515 545.08 373.02 L 556.11 372.66 L 572.47 371.85 L 588.53 370.74 L 604.32 369.33 C 611.25 368.65 618.08 367.88 624.82 367.03 L 634.85 365.71 L 649.61 363.51 L 663.99 361.06 C 674.61 359.14 684.9 357.01 694.82 354.72 L 704.59 352.37 L 717.24 349.04 C 732.73 344.77 747.11 340.08 760.16 335.07 L 767.84 332.02 L 777.59 327.84 C 818.49 309.43 842.66 287.61 842.66 266.66 C 842.66 246.61 820.54 225.79 782.82 207.89 L 777.59 205.48 L 767.84 201.3 C 754.281 195.782 740.446 190.969 726.39 186.88 L 717.22 184.28 L 704.59 180.97 C 694.62 178.483 684.59 176.242 674.51 174.25 L 663.99 172.27 L 649.61 169.82 L 634.87 167.62 C 628.142 166.677 621.401 165.824 614.65 165.06 L 604.3 163.99 L 588.53 162.58 L 572.47 161.47 L 556.11 160.66 C 548.79 160.36 541.39 160.17 533.92 160.06 L 522.67 160 Z"
            fill="#000000"/>
    </g>
    <g
        id="rotation_1"
        transform="translate(-27 -31) scale(4 4) translate(27 31)">
        <path
            id="path_9"
            d="M 105 105 M 17.61 105 C 17.552 86.51 23.363 68.47 34.202 53.491 C 45.042 38.511 60.361 27.352 77.943 21.627 C 95.524 15.902 114.477 15.902 132.058 21.627 C 149.64 27.352 164.959 38.511 175.799 53.491 C 186.638 68.47 192.449 86.51 192.391 105 C 192.449 123.49 186.638 141.53 175.799 156.509 C 164.959 171.489 149.64 182.648 132.058 188.373 C 114.477 194.098 95.524 194.098 77.943 188.373 C 60.361 182.648 45.042 171.489 34.202 156.509 C 23.363 141.53 17.552 123.49 17.61 105"
            fill="#000000"
            stroke="#ff0000"
            stroke-width="15.219"/>
    </g>
    <g
        id="rotationgroup_2"
        transform="translate(490 512) scale(0.605 0.605) translate(-490 -512)">
        <path
            id="path_10"
            d="M 522.67 96 L 531.2 96.04 C 561.79 96.277 592.349 98.056 622.76 101.37 L 637.31 103.08 L 652.71 105.21 L 667.84 107.62 L 675.41 108.94 L 690.3 111.78 C 815.51 137.1 903.23 191.27 906.56 262.46 L 906.67 266.66 L 906.67 714.66 C 906.67 787.92 817.97 843.73 690.31 869.54 L 675.42 872.38 L 667.85 873.7 L 652.72 876.09 L 637.32 878.22 C 601.05 882.87 562.55 885.32 522.67 885.32 C 482.8 885.32 444.29 882.87 408.02 878.22 L 392.62 876.09 L 377.49 873.7 C 240.4 850.51 142.23 794.21 138.77 718.8 L 138.67 714.67 L 138.67 266.67 L 138.78 262.47 C 142.11 191.28 229.83 137.12 355.04 111.79 L 369.93 108.95 L 377.5 107.63 L 392.63 105.24 L 408.03 103.11 C 440.425 99.008 473.021 96.688 505.67 96.16 L 522.67 96 Z M 667.84 639.04 L 652.71 641.43 L 637.31 643.56 C 601.04 648.21 562.54 650.66 522.66 650.66 C 482.79 650.66 444.28 648.21 408.01 643.56 L 392.61 641.43 L 377.48 639.04 C 305.99 626.94 245.06 605.85 202.65 577.73 L 202.67 714.67 C 202.67 735.62 226.84 757.44 267.74 775.85 L 277.49 780.03 C 292.53 786.22 309.49 791.96 328.09 797.05 L 340.74 800.36 C 353.6 803.56 367.19 806.5 381.34 809.06 L 395.72 811.51 L 410.46 813.71 C 420.42 815.1 430.62 816.31 441.03 817.34 L 456.8 818.75 L 472.86 819.86 L 489.22 820.67 C 511.511 821.552 533.829 821.552 556.12 820.67 L 572.48 819.86 L 588.54 818.75 L 604.33 817.34 C 614.72 816.32 624.92 815.1 634.88 813.71 L 649.62 811.51 L 664 809.06 C 678.17 806.5 691.73 803.58 704.6 800.36 L 717.25 797.05 C 735.85 791.93 752.81 786.21 767.85 780.03 L 777.6 775.85 C 816.92 758.14 840.79 737.3 842.56 717.08 L 842.67 714.67 L 842.67 577.71 C 800.28 605.85 739.35 626.95 667.84 639.04 Z M 842.67 364.37 C 802.37 391.1 745.39 411.47 678.47 423.83 L 667.8 425.71 L 652.7 428.1 L 637.3 430.23 C 601.03 434.88 562.53 437.33 522.65 437.33 C 488.47 437.33 455.3 435.54 423.66 432.08 L 408 430.22 L 392.6 428.09 L 377.47 425.7 C 305.98 413.6 245.05 392.51 202.64 364.39 L 202.65 480 C 202.65 500.95 226.82 522.77 267.72 541.18 L 277.47 545.36 C 292.51 551.55 309.47 557.29 328.07 562.38 L 340.72 565.69 C 353.58 568.89 367.17 571.83 381.32 574.39 L 395.7 576.84 L 410.44 579.04 C 420.4 580.43 430.6 581.64 441.01 582.67 L 456.78 584.08 L 472.84 585.19 L 489.2 586 C 511.491 586.882 533.809 586.882 556.1 586 L 572.46 585.19 L 588.52 584.08 L 604.31 582.67 C 614.7 581.65 624.9 580.43 634.86 579.04 L 649.6 576.84 L 663.98 574.39 C 678.15 571.83 691.71 568.91 704.58 565.69 L 717.23 562.38 C 735.83 557.26 752.79 551.54 767.83 545.36 L 777.58 541.18 C 816.9 523.47 840.77 502.63 842.54 482.41 L 842.65 480 L 842.65 364.37 Z M 522.67 160 L 514.22 160.04 L 501.63 160.25 L 489.21 160.66 L 472.85 161.47 L 456.79 162.58 L 441 163.99 C 434.07 164.67 427.24 165.44 420.5 166.29 L 410.47 167.61 L 395.71 169.81 L 381.33 172.26 C 370.71 174.18 360.42 176.31 350.5 178.6 L 340.73 180.95 L 328.08 184.28 C 312.59 188.55 298.21 193.24 285.16 198.25 L 277.48 201.3 L 267.73 205.48 C 226.83 223.89 202.66 245.71 202.66 266.66 C 202.66 286.71 224.78 307.53 262.5 325.43 L 267.73 327.84 L 277.48 332.02 C 290 337.18 303.87 342.03 318.93 346.44 L 328.1 349.04 L 340.73 352.35 C 350.37 354.76 360.42 357 370.81 359.07 L 381.33 361.05 L 395.71 363.5 L 410.45 365.7 C 417.08 366.64 423.83 367.47 430.67 368.26 L 441.02 369.33 L 456.79 370.74 L 472.85 371.85 L 489.21 372.66 C 507.824 373.395 526.458 373.515 545.08 373.02 L 556.11 372.66 L 572.47 371.85 L 588.53 370.74 L 604.32 369.33 C 611.25 368.65 618.08 367.88 624.82 367.03 L 634.85 365.71 L 649.61 363.51 L 663.99 361.06 C 674.61 359.14 684.9 357.01 694.82 354.72 L 704.59 352.37 L 717.24 349.04 C 732.73 344.77 747.11 340.08 760.16 335.07 L 767.84 332.02 L 777.59 327.84 C 818.49 309.43 842.66 287.61 842.66 266.66 C 842.66 246.61 820.54 225.79 782.82 207.89 L 777.59 205.48 L 767.84 201.3 C 754.281 195.782 740.446 190.969 726.39 186.88 L 717.22 184.28 L 704.59 180.97 C 694.62 178.483 684.59 176.242 674.51 174.25 L 663.99 172.27 L 649.61 169.82 L 634.87 167.62 C 628.142 166.677 621.401 165.824 614.65 165.06 L 604.3 163.99 L 588.53 162.58 L 572.47 161.47 L 556.11 160.66 C 548.79 160.36 541.39 160.17 533.92 160.06 L 522.67 160 Z"
            fill="#ffffff"/>
    </g>
    <g
        id="rotationgroup_3"
        transform="translate(512 512) scale(0.745 0.745) translate(-512 -512)">
        <path
            id="path_11"
            d="M 512 512 M 85.87 512 C 85.585 421.84 113.921 333.873 166.777 260.831 C 219.634 187.789 294.333 133.373 380.063 105.457 C 465.794 77.542 558.211 77.542 643.942 105.457 C 729.672 133.373 804.371 187.789 857.227 260.831 C 910.084 333.873 938.42 421.84 938.135 512 C 938.42 602.16 910.084 690.127 857.227 763.169 C 804.371 836.211 729.672 890.627 643.942 918.543 C 558.211 946.458 465.794 946.458 380.063 918.543 C 294.333 890.627 219.634 836.211 166.777 763.169 C 113.921 690.127 85.585 602.16 85.87 512"
            fill="#ffffff"
            stroke="#ff0000"
            stroke-width="74.21074285714286"/>
        <path
            id="path_12"
            d="M 474.897 205.044 L 658.1 205.044 L 658.1 279.255 L 474.897 279.255 Z"
            fill="#000000"
            stroke="#00000000"
            stroke-width="76.20920295619048"/>
        <path
            id="path_13"
            d="M 796.384 633.349 L 704.78 792.01 L 640.512 754.907 L 732.116 596.246 Z"
            fill="#000000"
            stroke="#00000000"
            stroke-width="76.20920295619048"/>
        <path
            id="path_14"
            d="M 474.897 205.044 L 549.108 205.044 L 549.108 512 L 474.897 512 Z"
            fill="#000000"
            stroke="#00000000"/>
        <path
            id="path_15"
            d="M 796.384 633.349 L 759.281 697.617 L 493.446 544.139 L 530.549 479.871 Z"
            fill="#000000"
            stroke="#00000000"/>
        <path
            id="path_16"
            d="M 264.719 697.612 L 227.616 633.344 L 493.451 479.866 L 530.554 544.134 Z"
            fill="#000000"
            stroke="#00000000"/>
        <path
            id="path_17"
            d="M 264.719 697.612 L 173.115 538.951 L 237.383 501.848 L 328.987 660.509 Z"
            fill="#000000"
            stroke="#00000000"
            stroke-width="76.20920295619048"/>
    </g>
    <g
        id="rotation_2"
        transform="translate(-27 -31) scale(4 4) translate(27 31)">
        <path
            id="path_18"
            d="M 105 105 M 17.61 105 C 17.552 86.51 23.363 68.47 34.202 53.491 C 45.042 38.511 60.361 27.352 77.943 21.627 C 95.524 15.902 114.477 15.902 132.058 21.627 C 149.64 27.352 164.959 38.511 175.799 53.491 C 186.638 68.47 192.449 86.51 192.391 105 C 192.449 123.49 186.638 141.53 175.799 156.509 C 164.959 171.489 149.64 182.648 132.058 188.373 C 114.477 194.098 95.524 194.098 77.943 188.373 C 60.361 182.648 45.042 171.489 34.202 156.509 C 23.363 141.53 17.552 123.49 17.61 105"
            fill="#ffffff"
            stroke="#ff0000"
            stroke-width="15.219"/>
    </g>
    <g
        id="rotationgroup_4"
        transform="translate(512 492) scale(0.605 0.605) translate(-512 -492)">
        <path
            id="path_19"
            d="M 430.08 134.55 L 439.74 159.77 C 444.482 172.271 452.913 183.04 463.91 190.643 C 474.907 198.246 487.96 202.329 501.33 202.35 C 514.006 202.311 526.408 198.625 537.047 191.734 C 547.687 184.842 556.121 175.032 561.34 163.48 L 562.94 159.73 L 572.65 134.56 L 598.8 141.22 C 631.59 149.56 662.97 162.06 692.41 178.38 L 702.16 183.97 L 725.48 197.75 L 714.45 222.5 C 708.977 234.694 707.334 248.268 709.741 261.416 C 712.148 274.564 718.492 286.675 727.93 296.14 C 736.859 305.078 748.176 311.258 760.523 313.935 C 772.87 316.613 785.731 315.677 797.56 311.24 L 801.53 309.62 L 826.23 298.63 L 840.01 321.88 C 857.211 350.85 870.599 381.92 879.84 414.32 L 882.78 425.2 L 889.46 451.4 L 864.22 461.09 C 852.375 465.589 842.072 473.403 834.545 483.596 C 827.019 493.789 822.583 505.936 821.77 518.58 L 821.64 522.68 L 821.77 526.78 C 822.53 538.698 826.513 550.188 833.291 560.02 C 840.069 569.852 849.392 577.661 860.26 582.61 L 864.23 584.27 L 889.47 593.96 L 882.79 620.16 C 874.478 652.86 861.95 684.341 845.52 713.81 L 839.91 723.52 L 826.13 746.67 L 801.49 735.75 C 789.287 730.294 775.713 728.663 762.566 731.073 C 749.418 733.483 737.305 739.822 727.83 749.25 C 718.905 758.195 712.738 769.522 710.068 781.873 C 707.398 794.224 708.336 807.087 712.77 818.92 L 714.39 822.89 L 725.38 847.59 L 702.13 861.37 C 673.16 878.571 642.089 891.958 609.69 901.2 L 598.81 904.14 L 572.61 910.82 L 562.92 885.58 C 558.178 873.079 549.747 862.31 538.75 854.707 C 527.753 847.104 514.7 843.021 501.33 843 C 488.654 843.039 476.252 846.725 465.613 853.616 C 454.973 860.508 446.539 870.318 441.32 881.87 L 439.72 885.62 L 430.01 910.79 L 403.86 904.13 C 371.185 895.813 339.716 883.323 310.23 866.97 L 300.5 861.38 L 277.18 847.6 L 288.21 822.85 C 293.683 810.656 295.326 797.082 292.919 783.934 C 290.512 770.786 284.168 758.675 274.73 749.21 C 265.801 740.272 254.484 734.092 242.137 731.415 C 229.79 728.737 216.929 729.673 205.1 734.11 L 201.13 735.73 L 176.43 746.67 L 162.65 723.42 C 145.45 694.457 132.062 663.393 122.82 631 L 119.88 620.12 L 113.2 593.92 L 138.44 584.23 C 150.934 579.489 161.698 571.062 169.298 560.07 C 176.899 549.079 180.984 536.033 181.01 522.67 C 180.975 509.99 177.291 497.585 170.399 486.941 C 163.508 476.298 153.695 467.86 142.14 462.64 L 138.39 461.06 L 113.22 451.35 L 119.88 425.2 C 128.26 392.3 140.79 360.9 157.15 331.55 L 162.76 321.84 L 176.53 298.67 L 201.17 309.59 C 213.375 315.045 226.952 316.672 240.1 314.257 C 253.248 311.842 265.36 305.496 274.83 296.06 C 283.754 287.118 289.92 275.795 292.59 263.447 C 295.26 251.099 294.322 238.24 289.89 226.41 L 288.27 222.44 L 277.28 197.74 L 300.53 183.96 C 329.5 166.758 360.57 153.371 392.97 144.13 L 403.85 141.19 L 430.05 134.53 Z M 606.53 206.81 L 605.21 208.79 C 594.071 224.822 579.373 238.062 562.269 247.472 C 545.165 256.883 526.114 262.211 506.61 263.04 L 501.34 263.15 C 480.911 263.149 460.783 258.199 442.683 248.726 C 424.583 239.253 409.044 225.535 397.4 208.75 L 396.1 206.81 L 388.57 209.41 C 378.67 212.95 368.94 216.98 359.43 221.46 L 352.43 224.89 L 353.07 228.22 C 356.341 247.259 355.207 266.797 349.755 285.33 C 344.304 303.864 334.679 320.904 321.62 335.14 L 317.84 339.09 C 303.522 353.397 285.981 364.066 266.692 370.2 C 247.403 376.335 226.922 377.758 206.97 374.35 L 203.6 373.71 L 200.14 380.75 C 195.66 390.24 191.63 399.95 188.07 409.87 L 185.47 417.46 L 187.45 418.78 C 203.482 429.919 216.722 444.617 226.132 461.721 C 235.543 478.825 240.871 497.876 241.7 517.38 L 241.81 522.65 C 241.809 543.079 236.859 563.207 227.386 581.307 C 217.913 599.407 204.195 614.946 187.41 626.59 L 185.47 627.87 L 188.07 635.42 C 191.63 645.32 195.64 655.05 200.12 664.56 L 203.55 671.56 L 206.88 670.92 C 225.925 667.648 245.47 668.789 264.005 674.255 C 282.541 679.721 299.577 689.368 313.8 702.45 L 317.75 706.23 C 332.064 720.554 342.734 738.107 348.858 757.409 C 354.983 776.71 356.387 797.203 352.95 817.16 L 352.33 820.38 L 359.37 823.86 C 368.91 828.34 378.63 832.35 388.55 835.91 L 396.1 838.49 L 397.44 836.53 C 408.579 820.498 423.277 807.258 440.381 797.848 C 457.485 788.437 476.536 783.109 496.04 782.28 L 501.31 782.17 C 521.739 782.171 541.867 787.121 559.967 796.594 C 578.067 806.067 593.606 819.785 605.25 836.57 L 606.53 838.47 L 614.08 835.91 C 624 832.35 633.71 828.34 643.22 823.86 L 650.22 820.4 L 649.58 817.09 C 646.313 798.049 647.451 778.511 652.906 759.978 C 658.361 741.445 667.989 724.405 681.05 710.17 L 684.8 706.22 C 699.119 691.915 716.66 681.246 735.949 675.112 C 755.237 668.978 775.718 667.554 795.67 670.96 L 799.02 671.58 L 802.5 664.56 C 806.98 655.07 811.01 645.36 814.57 635.44 L 817.13 627.87 L 815.21 626.59 C 799.161 615.45 785.908 600.743 776.493 583.625 C 767.078 566.507 761.754 547.439 760.94 527.92 L 760.83 522.65 L 760.94 517.38 C 761.758 497.859 767.086 478.791 776.504 461.673 C 785.923 444.555 799.179 429.849 815.23 418.71 L 817.15 417.39 L 814.59 409.88 C 811.03 399.98 807 390.25 802.52 380.74 L 799.06 373.72 L 795.73 374.36 C 776.689 377.631 757.149 376.492 738.618 371.029 C 720.086 365.567 703.052 355.926 688.83 342.85 L 684.88 339.07 C 670.566 324.746 659.896 307.193 653.772 287.891 C 647.647 268.59 646.243 248.097 649.68 228.14 L 650.28 224.9 L 643.24 221.44 C 633.7 216.96 623.98 212.93 614.06 209.37 L 606.51 206.79 Z M 501.33 395.61 C 535.01 395.621 567.342 409.02 591.156 432.838 C 614.97 456.655 628.365 488.99 628.37 522.67 C 628.355 555.521 615.602 587.119 592.81 610.778 C 570.018 634.436 538.918 648.359 506.09 649.6 L 501.33 649.71 L 496.57 649.62 C 463.739 648.379 432.635 634.453 409.843 610.791 C 387.051 587.128 374.3 555.524 374.29 522.67 C 374.301 488.993 387.698 456.664 411.511 432.851 C 435.324 409.038 467.653 395.641 501.33 395.63 Z M 501.33 456.41 C 483.769 456.421 466.912 463.41 454.496 475.83 C 442.08 488.25 435.095 505.109 435.09 522.67 C 435.101 539.58 441.582 555.86 453.196 568.151 C 464.81 580.441 480.698 587.833 497.58 588.8 L 501.33 588.91 L 505.08 588.8 C 521.316 587.87 536.656 580.995 548.156 569.496 C 559.655 557.996 566.53 542.656 567.46 526.42 L 567.57 522.67 C 567.559 505.112 560.572 488.258 548.157 475.843 C 535.742 463.428 518.888 456.441 501.33 456.43 Z"
            fill="#000000"/>
    </g>
    <g
        id="rotation_3"
        transform="translate(-27 -31) scale(4 4) translate(27 31)">
        <path
            id="path_20"
            d="M 105 105 M 17.61 105 C 17.552 86.51 23.363 68.47 34.202 53.491 C 45.042 38.511 60.361 27.352 77.943 21.627 C 95.524 15.902 114.477 15.902 132.058 21.627 C 149.64 27.352 164.959 38.511 175.799 53.491 C 186.638 68.47 192.449 86.51 192.391 105 C 192.449 123.49 186.638 141.53 175.799 156.509 C 164.959 171.489 149.64 182.648 132.058 188.373 C 114.477 194.098 95.524 194.098 77.943 188.373 C 60.361 182.648 45.042 171.489 34.202 156.509 C 23.363 141.53 17.552 123.49 17.61 105"
            fill="#000000"
            stroke="#ff0000"
            stroke-width="15.219"/>
    </g>
    <g
        id="rotationgroup_5"
        transform="translate(512 492) scale(0.605 0.605) translate(-512 -492)">
        <path
            id="path_21"
            d="M 430.08 134.55 L 439.74 159.77 C 444.482 172.271 452.913 183.04 463.91 190.643 C 474.907 198.246 487.96 202.329 501.33 202.35 C 514.006 202.311 526.408 198.625 537.047 191.734 C 547.687 184.842 556.121 175.032 561.34 163.48 L 562.94 159.73 L 572.65 134.56 L 598.8 141.22 C 631.59 149.56 662.97 162.06 692.41 178.38 L 702.16 183.97 L 725.48 197.75 L 714.45 222.5 C 708.977 234.694 707.334 248.268 709.741 261.416 C 712.148 274.564 718.492 286.675 727.93 296.14 C 736.859 305.078 748.176 311.258 760.523 313.935 C 772.87 316.613 785.731 315.677 797.56 311.24 L 801.53 309.62 L 826.23 298.63 L 840.01 321.88 C 857.211 350.85 870.599 381.92 879.84 414.32 L 882.78 425.2 L 889.46 451.4 L 864.22 461.09 C 852.375 465.589 842.072 473.403 834.545 483.596 C 827.019 493.789 822.583 505.936 821.77 518.58 L 821.64 522.68 L 821.77 526.78 C 822.53 538.698 826.513 550.188 833.291 560.02 C 840.069 569.852 849.392 577.661 860.26 582.61 L 864.23 584.27 L 889.47 593.96 L 882.79 620.16 C 874.478 652.86 861.95 684.341 845.52 713.81 L 839.91 723.52 L 826.13 746.67 L 801.49 735.75 C 789.287 730.294 775.713 728.663 762.566 731.073 C 749.418 733.483 737.305 739.822 727.83 749.25 C 718.905 758.195 712.738 769.522 710.068 781.873 C 707.398 794.224 708.336 807.087 712.77 818.92 L 714.39 822.89 L 725.38 847.59 L 702.13 861.37 C 673.16 878.571 642.089 891.958 609.69 901.2 L 598.81 904.14 L 572.61 910.82 L 562.92 885.58 C 558.178 873.079 549.747 862.31 538.75 854.707 C 527.753 847.104 514.7 843.021 501.33 843 C 488.654 843.039 476.252 846.725 465.613 853.616 C 454.973 860.508 446.539 870.318 441.32 881.87 L 439.72 885.62 L 430.01 910.79 L 403.86 904.13 C 371.185 895.813 339.716 883.323 310.23 866.97 L 300.5 861.38 L 277.18 847.6 L 288.21 822.85 C 293.683 810.656 295.326 797.082 292.919 783.934 C 290.512 770.786 284.168 758.675 274.73 749.21 C 265.801 740.272 254.484 734.092 242.137 731.415 C 229.79 728.737 216.929 729.673 205.1 734.11 L 201.13 735.73 L 176.43 746.67 L 162.65 723.42 C 145.45 694.457 132.062 663.393 122.82 631 L 119.88 620.12 L 113.2 593.92 L 138.44 584.23 C 150.934 579.489 161.698 571.062 169.298 560.07 C 176.899 549.079 180.984 536.033 181.01 522.67 C 180.975 509.99 177.291 497.585 170.399 486.941 C 163.508 476.298 153.695 467.86 142.14 462.64 L 138.39 461.06 L 113.22 451.35 L 119.88 425.2 C 128.26 392.3 140.79 360.9 157.15 331.55 L 162.76 321.84 L 176.53 298.67 L 201.17 309.59 C 213.375 315.045 226.952 316.672 240.1 314.257 C 253.248 311.842 265.36 305.496 274.83 296.06 C 283.754 287.118 289.92 275.795 292.59 263.447 C 295.26 251.099 294.322 238.24 289.89 226.41 L 288.27 222.44 L 277.28 197.74 L 300.53 183.96 C 329.5 166.758 360.57 153.371 392.97 144.13 L 403.85 141.19 L 430.05 134.53 Z M 606.53 206.81 L 605.21 208.79 C 594.071 224.822 579.373 238.062 562.269 247.472 C 545.165 256.883 526.114 262.211 506.61 263.04 L 501.34 263.15 C 480.911 263.149 460.783 258.199 442.683 248.726 C 424.583 239.253 409.044 225.535 397.4 208.75 L 396.1 206.81 L 388.57 209.41 C 378.67 212.95 368.94 216.98 359.43 221.46 L 352.43 224.89 L 353.07 228.22 C 356.341 247.259 355.207 266.797 349.755 285.33 C 344.304 303.864 334.679 320.904 321.62 335.14 L 317.84 339.09 C 303.522 353.397 285.981 364.066 266.692 370.2 C 247.403 376.335 226.922 377.758 206.97 374.35 L 203.6 373.71 L 200.14 380.75 C 195.66 390.24 191.63 399.95 188.07 409.87 L 185.47 417.46 L 187.45 418.78 C 203.482 429.919 216.722 444.617 226.132 461.721 C 235.543 478.825 240.871 497.876 241.7 517.38 L 241.81 522.65 C 241.809 543.079 236.859 563.207 227.386 581.307 C 217.913 599.407 204.195 614.946 187.41 626.59 L 185.47 627.87 L 188.07 635.42 C 191.63 645.32 195.64 655.05 200.12 664.56 L 203.55 671.56 L 206.88 670.92 C 225.925 667.648 245.47 668.789 264.005 674.255 C 282.541 679.721 299.577 689.368 313.8 702.45 L 317.75 706.23 C 332.064 720.554 342.734 738.107 348.858 757.409 C 354.983 776.71 356.387 797.203 352.95 817.16 L 352.33 820.38 L 359.37 823.86 C 368.91 828.34 378.63 832.35 388.55 835.91 L 396.1 838.49 L 397.44 836.53 C 408.579 820.498 423.277 807.258 440.381 797.848 C 457.485 788.437 476.536 783.109 496.04 782.28 L 501.31 782.17 C 521.739 782.171 541.867 787.121 559.967 796.594 C 578.067 806.067 593.606 819.785 605.25 836.57 L 606.53 838.47 L 614.08 835.91 C 624 832.35 633.71 828.34 643.22 823.86 L 650.22 820.4 L 649.58 817.09 C 646.313 798.049 647.451 778.511 652.906 759.978 C 658.361 741.445 667.989 724.405 681.05 710.17 L 684.8 706.22 C 699.119 691.915 716.66 681.246 735.949 675.112 C 755.237 668.978 775.718 667.554 795.67 670.96 L 799.02 671.58 L 802.5 664.56 C 806.98 655.07 811.01 645.36 814.57 635.44 L 817.13 627.87 L 815.21 626.59 C 799.161 615.45 785.908 600.743 776.493 583.625 C 767.078 566.507 761.754 547.439 760.94 527.92 L 760.83 522.65 L 760.94 517.38 C 761.758 497.859 767.086 478.791 776.504 461.673 C 785.923 444.555 799.179 429.849 815.23 418.71 L 817.15 417.39 L 814.59 409.88 C 811.03 399.98 807 390.25 802.52 380.74 L 799.06 373.72 L 795.73 374.36 C 776.689 377.631 757.149 376.492 738.618 371.029 C 720.086 365.567 703.052 355.926 688.83 342.85 L 684.88 339.07 C 670.566 324.746 659.896 307.193 653.772 287.891 C 647.647 268.59 646.243 248.097 649.68 228.14 L 650.28 224.9 L 643.24 221.44 C 633.7 216.96 623.98 212.93 614.06 209.37 L 606.51 206.79 Z M 501.33 395.61 C 535.01 395.621 567.342 409.02 591.156 432.838 C 614.97 456.655 628.365 488.99 628.37 522.67 C 628.355 555.521 615.602 587.119 592.81 610.778 C 570.018 634.436 538.918 648.359 506.09 649.6 L 501.33 649.71 L 496.57 649.62 C 463.739 648.379 432.635 634.453 409.843 610.791 C 387.051 587.128 374.3 555.524 374.29 522.67 C 374.301 488.993 387.698 456.664 411.511 432.851 C 435.324 409.038 467.653 395.641 501.33 395.63 Z M 501.33 456.41 C 483.769 456.421 466.912 463.41 454.496 475.83 C 442.08 488.25 435.095 505.109 435.09 522.67 C 435.101 539.58 441.582 555.86 453.196 568.151 C 464.81 580.441 480.698 587.833 497.58 588.8 L 501.33 588.91 L 505.08 588.8 C 521.316 587.87 536.656 580.995 548.156 569.496 C 559.655 557.996 566.53 542.656 567.46 526.42 L 567.57 522.67 C 567.559 505.112 560.572 488.258 548.157 475.843 C 535.742 463.428 518.888 456.441 501.33 456.43 Z"
            fill="#ffffff"/>
    </g>
    <g
        id="rotation_4"
        transform="translate(-27 -31) scale(4 4) translate(27 31)">
        <path
            id="path_22"
            d="M 105 105 M 17.61 105 C 17.552 86.51 23.363 68.47 34.202 53.491 C 45.042 38.511 60.361 27.352 77.943 21.627 C 95.524 15.902 114.477 15.902 132.058 21.627 C 149.64 27.352 164.959 38.511 175.799 53.491 C 186.638 68.47 192.449 86.51 192.391 105 C 192.449 123.49 186.638 141.53 175.799 156.509 C 164.959 171.489 149.64 182.648 132.058 188.373 C 114.477 194.098 95.524 194.098 77.943 188.373 C 60.361 182.648 45.042 171.489 34.202 156.509 C 23.363 141.53 17.552 123.49 17.61 105"
            fill="#ffffff"
            stroke="#ff0000"
            stroke-width="15.219"/>
    </g>
    <g
        id="rotationgroup_6"
        transform="translate(512 420) scale(0.575 0.575) translate(-512 -420)">
        <path
            id="path_23"
            d="M 512 138.67 C 541.619 138.665 570.168 149.876 591.869 170.034 C 613.57 190.191 626.854 217.837 629.031 247.376 C 631.208 276.914 622.121 306.209 603.61 329.33 L 799.15 668.02 C 829.38 663.412 860.245 670.8 885.112 688.595 C 909.98 706.391 926.931 733.222 932.323 763.322 C 937.715 793.421 931.131 824.468 913.988 849.789 C 896.844 875.111 870.463 892.753 840.513 898.925 C 810.564 905.097 779.357 899.323 753.598 882.843 C 727.84 866.363 709.518 840.449 702.57 810.67 L 321.43 810.67 C 314.479 840.448 296.156 866.36 270.397 882.838 C 244.639 899.316 213.432 905.088 183.483 898.914 C 153.535 892.741 127.155 875.098 110.012 849.776 C 92.87 824.455 86.288 793.409 91.68 763.31 C 97.072 733.211 114.023 706.381 138.89 688.586 C 163.757 670.79 194.621 663.403 224.85 668.01 L 420.39 329.32 C 401.883 306.198 392.799 276.906 394.978 247.37 C 397.156 217.834 410.439 190.191 432.138 170.035 C 453.838 149.878 482.384 138.667 512 138.67 Z M 253.35 757.33 C 247.733 747.553 239.157 739.805 228.862 735.206 C 218.566 730.607 207.073 729.389 196.043 731.729 C 185.013 734.069 175.004 739.848 167.462 748.23 C 159.921 756.613 155.229 767.175 154.064 778.391 C 152.9 789.606 155.322 800.907 160.98 810.66 C 168.065 822.873 179.718 831.786 193.36 835.426 C 207.002 839.066 221.547 837.143 233.774 830.083 C 246.002 823.024 254.939 811.389 258.608 797.755 C 262.276 784.121 260.384 769.572 253.35 757.33 Z M 843.5 737.81 C 833.747 732.152 822.446 729.73 811.231 730.894 C 800.015 732.059 789.453 736.751 781.07 744.292 C 772.688 751.834 766.909 761.843 764.569 772.873 C 762.229 783.903 763.447 795.396 768.046 805.692 C 772.645 815.987 780.393 824.563 790.17 830.18 C 802.412 837.214 816.961 839.106 830.595 835.438 C 844.229 831.769 855.864 822.832 862.923 810.604 C 869.983 798.377 871.906 783.832 868.266 770.19 C 864.626 756.548 855.713 744.895 843.5 737.81 Z M 551.23 366.61 C 538.633 371.072 525.364 373.345 512 373.33 C 498.24 373.33 485.03 370.98 472.79 366.61 L 283.35 694.72 C 299.541 708.528 311.667 726.491 318.42 746.67 L 705.58 746.67 C 712.367 726.508 724.488 708.554 740.65 694.72 L 551.21 366.61 Z M 512 202.67 C 500.715 202.634 489.706 206.181 480.564 212.796 C 471.422 219.412 464.611 228.761 461.117 239.491 C 457.623 250.221 457.623 261.789 461.117 272.519 C 464.611 283.249 471.422 292.598 480.564 299.214 C 489.706 305.829 500.715 309.376 512 309.34 C 526.111 309.295 539.643 303.653 549.605 293.659 C 559.567 283.665 565.167 270.116 565.167 256.005 C 565.167 241.894 559.567 228.345 549.605 218.351 C 539.643 208.357 526.111 202.715 512 202.67 Z"
            fill="#000000"/>
    </g>
    <g
        id="rotation_5"
        transform="translate(-27 -31) scale(4 4) translate(27 31)">
        <path
            id="path_24"
            d="M 105 105 M 17.61 105 C 17.552 86.51 23.363 68.47 34.202 53.491 C 45.042 38.511 60.361 27.352 77.943 21.627 C 95.524 15.902 114.477 15.902 132.058 21.627 C 149.64 27.352 164.959 38.511 175.799 53.491 C 186.638 68.47 192.449 86.51 192.391 105 C 192.449 123.49 186.638 141.53 175.799 156.509 C 164.959 171.489 149.64 182.648 132.058 188.373 C 114.477 194.098 95.524 194.098 77.943 188.373 C 60.361 182.648 45.042 171.489 34.202 156.509 C 23.363 141.53 17.552 123.49 17.61 105"
            fill="#000000"
            stroke="#ff0000"
            stroke-width="15.219"/>
    </g>
    <g
        id="rotationgroup_7"
        transform="translate(512 420) scale(0.575 0.575) translate(-512 -420)">
        <path
            id="path_25"
            d="M 512 138.67 C 541.619 138.665 570.168 149.876 591.869 170.034 C 613.57 190.191 626.854 217.837 629.031 247.376 C 631.208 276.914 622.121 306.209 603.61 329.33 L 799.15 668.02 C 829.38 663.412 860.245 670.8 885.112 688.595 C 909.98 706.391 926.931 733.222 932.323 763.322 C 937.715 793.421 931.131 824.468 913.988 849.789 C 896.844 875.111 870.463 892.753 840.513 898.925 C 810.564 905.097 779.357 899.323 753.598 882.843 C 727.84 866.363 709.518 840.449 702.57 810.67 L 321.43 810.67 C 314.479 840.448 296.156 866.36 270.397 882.838 C 244.639 899.316 213.432 905.088 183.483 898.914 C 153.535 892.741 127.155 875.098 110.012 849.776 C 92.87 824.455 86.288 793.409 91.68 763.31 C 97.072 733.211 114.023 706.381 138.89 688.586 C 163.757 670.79 194.621 663.403 224.85 668.01 L 420.39 329.32 C 401.883 306.198 392.799 276.906 394.978 247.37 C 397.156 217.834 410.439 190.191 432.138 170.035 C 453.838 149.878 482.384 138.667 512 138.67 Z M 253.35 757.33 C 247.733 747.553 239.157 739.805 228.862 735.206 C 218.566 730.607 207.073 729.389 196.043 731.729 C 185.013 734.069 175.004 739.848 167.462 748.23 C 159.921 756.613 155.229 767.175 154.064 778.391 C 152.9 789.606 155.322 800.907 160.98 810.66 C 168.065 822.873 179.718 831.786 193.36 835.426 C 207.002 839.066 221.547 837.143 233.774 830.083 C 246.002 823.024 254.939 811.389 258.608 797.755 C 262.276 784.121 260.384 769.572 253.35 757.33 Z M 843.5 737.81 C 833.747 732.152 822.446 729.73 811.231 730.894 C 800.015 732.059 789.453 736.751 781.07 744.292 C 772.688 751.834 766.909 761.843 764.569 772.873 C 762.229 783.903 763.447 795.396 768.046 805.692 C 772.645 815.987 780.393 824.563 790.17 830.18 C 802.412 837.214 816.961 839.106 830.595 835.438 C 844.229 831.769 855.864 822.832 862.923 810.604 C 869.983 798.377 871.906 783.832 868.266 770.19 C 864.626 756.548 855.713 744.895 843.5 737.81 Z M 551.23 366.61 C 538.633 371.072 525.364 373.345 512 373.33 C 498.24 373.33 485.03 370.98 472.79 366.61 L 283.35 694.72 C 299.541 708.528 311.667 726.491 318.42 746.67 L 705.58 746.67 C 712.367 726.508 724.488 708.554 740.65 694.72 L 551.21 366.61 Z M 512 202.67 C 500.715 202.634 489.706 206.181 480.564 212.796 C 471.422 219.412 464.611 228.761 461.117 239.491 C 457.623 250.221 457.623 261.789 461.117 272.519 C 464.611 283.249 471.422 292.598 480.564 299.214 C 489.706 305.829 500.715 309.376 512 309.34 C 526.111 309.295 539.643 303.653 549.605 293.659 C 559.567 283.665 565.167 270.116 565.167 256.005 C 565.167 241.894 559.567 228.345 549.605 218.351 C 539.643 208.357 526.111 202.715 512 202.67 Z"
            fill="#ffffff"/>
    </g>
</svg>
